<svg version="1.2" xmlns="http://www.w3.org/2000/svg" viewBox="0 0 256 256" width="256" height="256">
	<title>crown icon</title>
	<style>
		.s0 { fill: #ffffff } 
	</style>
	<path id="Path 0" class="s0" d="m122.5 37.3c-1.6 1.2-11.8 15.6-22.7 32-10.9 16.3-20.7 30.2-21.8 30.7-1.1 0.6-3.7 1-5.8 1-3.3 0-6.6-2.1-28.4-18.5-20.2-15-25.4-18.5-28.1-18.5-2 0-4 0.8-5.5 2.2-1.9 1.9-2.2 3.1-1.9 7.3 0.2 2.8 3.4 25.1 7.3 49.7l6.9 44.8h211c11.3-74 14.6-96.4 14.6-97.5 0-1.1-1.1-3-2.3-4.2-1.4-1.4-3.6-2.3-5.6-2.3-2.6 0-7.6 3.3-27.9 18.5-21.9 16.4-25.2 18.5-28.6 18.5-2 0-4.6-0.4-5.7-1-1.1-0.5-10.9-14.4-21.8-30.7-10.9-16.4-21.2-30.8-22.8-32.1-1.6-1.2-4.1-2.3-5.5-2.2-1.4 0-3.9 1-5.4 2.3zm-100.3 149.2c-0.4 0.9-0.4 7.1-0.1 13.8 0.3 6.7 1 13.2 1.7 14.5 0.7 1.2 2.7 3.1 4.4 4.2 3.2 2 5.1 2 99.8 2 94.7 0 96.6 0 99.8-2 1.7-1.1 3.7-3 4.4-4.2 0.8-1.5 1.3-7.1 1.3-15.8v-13.5c-199.2-0.5-210.6-0.3-211.3 1z"/>
</svg>