<svg version="1.2" xmlns="http://www.w3.org/2000/svg" viewBox="0 0 1024 1024" width="1024" height="1024">
	<title>folder-open-svg</title>
	<style>
		.s0 { fill: #777777 } 
	</style>
	<path fill-rule="evenodd" class="s0" d="m960 476c0 4.1-0.8 8.2-2.3 12l-134 332c-4.9 12.1-16.7 20-29.7 20h-698c-17.7 0-32-14.3-32-32v-592c0-17.7 14.3-32 32-32h254.2q0.8 0 1.5 0.2 0.8 0.1 1.5 0.4 0.7 0.3 1.3 0.7 0.6 0.4 1.2 0.9l117.3 112.2h315c17.7 0 32 14.3 32 32v113.6h108c17.7 0 32 14.3 32 32zm-212-105.6h-303.9l-119.6-114.4h-188.5v387.2l72.3-179.2c4.9-12.1 16.7-20 29.7-20h510z"/>
</svg>