<svg version="1.2" xmlns="http://www.w3.org/2000/svg" viewBox="0 0 1024 1024" width="1024" height="1024">
	<title>plus-circle-svg</title>
	<style>
		.s0 { fill: #777777 } 
	</style>
	<path fill-rule="evenodd" class="s0" d="m960 512c0 247.4-200.6 448-448 448-247.4 0-448-200.6-448-448 0-247.4 200.6-448 448-448 247.4 0 448 200.6 448 448zm-256-24c0-4.4-3.6-8-8-8h-152v-152c0-4.4-3.6-8-8-8h-48c-4.4 0-8 3.6-8 8v152h-152c-4.4 0-8 3.6-8 8v48c0 4.4 3.6 8 8 8h152v152c0 4.4 3.6 8 8 8h48c4.4 0 8-3.6 8-8v-152h152c4.4 0 8-3.6 8-8z"/>
</svg>