<svg version="1.2" xmlns="http://www.w3.org/2000/svg" viewBox="0 0 1024 1024" width="1024" height="1024">
	<title>reload-svg</title>
	<style>
		.s0 { fill: #ffffff;stroke: #ffffff;stroke-miterlimit:100;stroke-width: 48 } 
	</style>
	<path class="s0" d="m909.1 209.3l-56.4 44.1c-76.9-98.3-196.5-161.4-330.8-161.4-231.9 0-419.6 187.5-419.9 419.5-0.3 232.2 187.8 420.5 419.9 420.5 181.3 0 335.8-115 394.6-276.1 1.5-4.2-0.7-8.9-4.9-10.3l-56.7-19.5q-1.5-0.5-3-0.4-1.6 0.1-3 0.7-1.4 0.7-2.5 1.9-1.1 1.1-1.6 2.6c-1.8 5-3.8 10-5.9 14.9-17.3 41-42.1 77.8-73.7 109.4q-11.7 11.7-24.5 22.3-12.8 10.6-26.6 19.9-13.7 9.3-28.3 17.2-14.6 7.9-29.9 14.4c-42.3 17.9-87.4 27-133.8 27-46.5 0-91.5-9.1-133.8-27q-15.3-6.5-29.9-14.4-14.6-7.9-28.3-17.2-13.8-9.3-26.6-19.8-12.8-10.6-24.5-22.4-11.8-11.7-22.3-24.5-10.6-12.8-19.9-26.6-9.2-13.8-17.2-28.4-7.9-14.6-14.3-29.9c-17.9-42.4-27-87.4-27-133.9 0-46.5 9.1-91.5 27-133.9 17.3-41 42.1-77.8 73.7-109.4 31.6-31.6 68.4-56.4 109.3-73.8 42.3-17.9 87.4-27 133.8-27 46.5 0 91.5 9.1 133.8 27q15.3 6.5 29.9 14.4 14.6 7.9 28.3 17.2 13.8 9.3 26.6 19.8 12.8 10.6 24.5 22.4c9.9 9.9 19.2 20.4 27.8 31.4l-60.2 47c-1.2 0.9-2.1 2.2-2.6 3.6-0.5 1.4-0.6 2.9-0.3 4.4 0.3 1.5 1 2.8 2.1 3.9 1 1.1 2.3 1.8 3.8 2.2l175.6 43c5 1.2 9.9-2.6 9.9-7.7l0.8-180.9c-0.1-6.6-7.8-10.3-13-6.2z"/>
</svg>