<svg version="1.2" xmlns="http://www.w3.org/2000/svg" viewBox="0 0 1024 1024" width="1024" height="1024">
	<title>upload-svg</title>
	<style>
		.s0 { fill: #777777 } 
	</style>
	<path class="s0" d="m400 317.7h73.9v338.3c0 4.4 3.6 8 8 8h60c4.4 0 8-3.6 8-8v-338.3h74.1c6.7 0 10.4-7.7 6.3-12.9l-112-141.8c-0.7-1-1.7-1.7-2.8-2.3-1.1-0.5-2.3-0.8-3.5-0.8-1.2 0-2.4 0.3-3.5 0.8-1.1 0.6-2.1 1.3-2.8 2.3l-112 141.7c-4.1 5.3-0.4 13 6.3 13zm478 308.3h-60c-4.4 0-8 3.6-8 8v154h-596v-154c0-4.4-3.6-8-8-8h-60c-4.4 0-8 3.6-8 8v198c0 17.7 14.3 32 32 32h684c17.7 0 32-14.3 32-32v-198c0-4.4-3.6-8-8-8z"/>
</svg>