<svg version="1.2" xmlns="http://www.w3.org/2000/svg" viewBox="0 0 32 32" width="32" height="32">
	<title>wrench-solid-svg</title>
	<style>
		.s0 { fill: #ffffff } 
	</style>
	<path fill-rule="evenodd" class="s0" d="m31.8 6.9c0.7 3-0.1 6.2-2.4 8.5-2.5 2.5-6.1 3.2-9.3 2.1l-13.3 13.3c-1.6 1.5-4.1 1.5-5.7 0-1.6-1.6-1.5-4.1 0-5.7l13.4-13.3c-1-3.1-0.3-6.7 2.2-9.2 2.3-2.3 5.6-3 8.5-2.3 0.6 0.2 0.8 0.9 0.4 1.3l-4.7 4.6 0.7 4.2 4.2 0.8 4.7-4.7c0.4-0.4 1.1-0.2 1.3 0.4zm-26.4 21c0-0.8-0.6-1.5-1.5-1.5-0.8 0-1.5 0.7-1.5 1.5 0 0.9 0.7 1.5 1.5 1.5 0.9 0 1.5-0.6 1.5-1.5z"/>
</svg>